<svg width="84" height="33" viewBox="0 0 84 33" fill="none" xmlns="http://www.w3.org/2000/svg">
<path d="M14.4529 0L19.8982 3.51145L3.46056 8.14249L0 6.41221L14.4529 0Z" fill="#E6B37A"/>
<path d="M19.7964 32.2138V13.5878L36.4886 8.49878L35.4707 27.3283L19.7964 32.2138Z" fill="#DBA976"/>
<path d="M3.20615 8.09158L4.63108 27.6336L19.7965 32.0101V13.486L3.20615 8.09158Z" fill="#BE8F63"/>
<path d="M19.7964 3.51141L3.30791 8.09156L19.7964 13.6386V3.51141Z" fill="#D68651"/>
<path d="M19.7964 3.51141L36.5903 8.29513L19.7964 13.8931V3.51141Z" fill="#A75E31"/>
<path d="M25.4453 16.692L20.0509 13.6386L36.285 8.34598L39.8473 10.2289L25.4453 16.692Z" fill="#E6B37A"/>
<path d="M40 6.51399L36.5903 8.54961L19.7964 3.51144L25.4962 0.101776L40 6.51399Z" fill="#E6B37A"/>
<path d="M0 10.229L3.257 7.98981L19.8982 13.7404L14.3511 16.6921L0 10.229Z" fill="#E6B37A"/>
<path d="M45.54 24.1069V9.20693H55.36V11.3069H47.9V15.5869H54.96V17.6869H47.9V22.0069H55.36V24.1069H45.54ZM56.2317 24.1069L61.4717 9.20693H64.3917L69.6317 24.1069H67.1117L65.9717 20.7669H59.9117L58.7517 24.1069H56.2317ZM60.5917 18.6669H65.2517L62.6117 10.8669H63.2717L60.5917 18.6669ZM70.0794 24.1069L75.3194 9.20693H78.2394L83.4794 24.1069H80.9594L79.8194 20.7669H73.7594L72.5994 24.1069H70.0794ZM74.4394 18.6669H79.0994L76.4594 10.8669H77.1194L74.4394 18.6669Z" fill="black"/>
</svg>
